<svg xmlns="http://www.w3.org/2000/svg" viewBox="0 0 119.33 94.27"><defs><style>.cls-1{fill:#0078d7;}</style></defs><title>Asset 12</title><g id="Layer_2" data-name="Layer 2"><g id="Our_Serviices" data-name="Our Serviices"><path class="cls-1" d="M27.26,0c.32.11.64.23,1,.32a8.94,8.94,0,1,1-4.65,0c.29-.08.58-.19.87-.28Z"/><path class="cls-1" d="M36.6,30.43q0,2,0,4.05,0,27.13,0,54.26A7.08,7.08,0,0,1,36,91.56a4.77,4.77,0,0,1-5.24,2.61,4.88,4.88,0,0,1-4-4.83q0-17.07,0-34.15c0-.5,0-1,0-1.6H24.92c0,.71,0,1.4,0,2.1q0,16.61,0,33.21a5,5,0,0,1-2.41,4.63,4.88,4.88,0,0,1-7.42-4.35c0-9.2,0-18.4,0-27.6,0-.42,0-.83,0-1.48L8.46,64.56,0,52.07l4.94-3.35.36.15a5,5,0,0,1-.61,1.42,7.21,7.21,0,0,1-1.42,1L1.67,52.4l7.11,10.5,13.32-9L15,43.38l-1.6,1c-.27-1.23-.3-1.28.71-1.87a1.85,1.85,0,0,0,1-1.87c-.06-3.46,0-6.91-.12-10.39a22.22,22.22,0,0,0-2,7,85.14,85.14,0,0,0-.47,17.27A3.24,3.24,0,0,1,11,57.71,3.1,3.1,0,0,1,6.26,55.4C5.74,47.17,5.63,39,7.89,30.92c1-3.57,2.53-6.88,5.67-9.16a8.15,8.15,0,0,1,4.9-1.63c4.6,0,9.2.1,13.8,0,4.18-.11,7,1.87,9.12,5.25A29.07,29.07,0,0,1,45,36.84a92,92,0,0,1,.47,18,3.28,3.28,0,0,1-3.28,3.39c-1.85-.07-3.06-1.5-3.08-3.55,0-5,0-10-.22-15.06A21.5,21.5,0,0,0,36.6,30.43Zm-12.38-2q-1,7.64-2.08,15.35a1.12,1.12,0,0,0,.17.76C23.44,46,24.6,47.46,25.84,49c1.25-1.58,2.43-3,3.54-4.51a1.67,1.67,0,0,0,.12-1.09c-.43-3.28-.87-6.56-1.32-9.84-.24-1.75-.5-3.5-.74-5.15Zm.1-5-.42,1.67c-.38,1.49-.13,1.93,1.39,2.16a4.38,4.38,0,0,0,1.59-.14c1-.22,1.29-.73,1-1.77-.58-2-.53-2-2.54-2C25,23.4,24.72,23.42,24.33,23.44Z"/><path class="cls-1" d="M108,57.34V75.51h6.16v1.85H39V60a27,27,0,0,0,4.31.42,4.4,4.4,0,0,0,3.51-2.26,1.68,1.68,0,0,1,1.72-.83q28.23,0,56.47,0Z"/><path class="cls-1" d="M84.89,17.58c-1.14-1.7-2.21-3.32-3.33-4.91a1,1,0,0,0-1.82.19c-.83,1.89-1.62,3.79-2.36,5.72a1.37,1.37,0,0,1-1.25,1l-.11,0c-3.26.64-3.27.65-4.88-2.3-.71-1.3-1.36-2.63-2.1-3.91a1.36,1.36,0,0,0-.91-.67,1.33,1.33,0,0,0-.9.67c-1.36,2.41-2.73,4.81-4,7.28a2,2,0,0,1-2.44,1c-.39-.05-.82-.69-1-1.15C58.7,18,57.67,15.48,56.55,13c-.16-.36-.56-.81-.89-.85a1.48,1.48,0,0,0-1,.66c-2.24,3.18-4.44,6.39-6.83,9.85-.45-1.26-.82-2.2-1.12-3.17-.87-2.78-1.69-5.58-2.59-8.36a1.55,1.55,0,0,0-.82-.93c-.27-.08-.77.23-1,.5-1.93,2.19-3.89,4.37-5.7,6.66-.82,1-1.66.47-2.52.39,0,0-.17-.75,0-.93a11.64,11.64,0,0,0,3.1-8.7q41.62,10.49,80.8-6.7a3,3,0,0,1,.07.45c-1.7.57-1.95,2.65-3.63,3.35a39.84,39.84,0,0,0-4.54,2.63c-.64.37-1.3.7-2.26,1.22-.47-.57-.95-1.25-1.52-1.83s-1.4-.38-1.61.49a.44.44,0,0,0,0,.12c.08,2.49-1.29,3.79-3.57,4.34l-.11,0c-1.3.52-2.73,1.63-3.86,1.39S95,11.69,94,10.71c-.28-.29-.79-.6-1.1-.53s-.66.58-.79,1c-.45,1.33-.76,2.7-1.22,4a1.62,1.62,0,0,1-.88.9C88.38,16.6,86.69,17.06,84.89,17.58Z"/><path class="cls-1" d="M116.63,17.31l-9-5a2.26,2.26,0,0,0-3.41,1.67c-.49,3.34-1,6.68-1.56,10.24-.46-.34-.78-.58-1.1-.83L94.33,17.6a2.16,2.16,0,0,0-3.23,1c-.95,3.36-1.88,6.73-2.83,10.14-1.18-1.14-2.3-2.21-3.4-3.3a40.25,40.25,0,0,1-3.5-3.6c-1-1.24-2-1.09-3.18-.64a1.63,1.63,0,0,0-.77.89c-1.08,2.79-2.11,5.61-3.15,8.41-.16.43-.34.86-.57,1.45l-3.58-4.3L67,23.89a1.67,1.67,0,0,0-2.92.4l-4,8.32c-.16.34-.34.68-.61,1.2L56.86,30c-1.1-1.61-2.24-3.19-3.29-4.83a1.58,1.58,0,0,0-1.63-.8c-2.06.1-4.13.14-6.19.15a3,3,0,0,1-1-.41,3.31,3.31,0,0,1,1-.39,153.64,153.64,0,0,0,42.78-5.94,97.44,97.44,0,0,0,29.7-13.84,2.2,2.2,0,0,1,.59-.37.52.52,0,0,1,.47.16.55.55,0,0,1-.08.48,1.12,1.12,0,0,1-.47.34c-1.9.8-2.3,2.24-2.17,4.2C116.77,11.53,116.63,14.33,116.63,17.31Z"/><path class="cls-1" d="M102.54,55.8H85V51.42h17.55Z"/><path class="cls-1" d="M60.07,55.79H47.83l.24-4.4h12Z"/><path class="cls-1" d="M13.91,46.91c1.57,2.26,2.94,4.19,4.26,6.14.1.15-.07.49-.17,1.09C16.42,51.88,15.05,50,13.73,48,13.63,47.85,13.8,47.51,13.91,46.91Z"/><path class="cls-1" d="M13.27,51.88l2.45,3.51c-.36.08-.74.23-.79.16C14.26,54.49,13.06,53.67,13.27,51.88Z"/></g></g></svg>