<svg xmlns="http://www.w3.org/2000/svg" viewBox="0 0 67.34 95.61"><defs><style>.cls-1{fill:#0078d7;}</style></defs><title>Asset 6</title><g id="Layer_2" data-name="Layer 2"><g id="Our_Serviices" data-name="Our Serviices"><path class="cls-1" d="M51,16.27V26.6c.37,0,.67,0,1,0,2.09,0,4.18,0,6.26,0a8.41,8.41,0,0,1,8.54,8.53q0,29.86,0,59.73c0,.21,0,.43,0,.71H.61c0-.3-.05-.6-.05-.89q0-29.63,0-59.26c0-4.47,2.86-8,7.07-8.67A41.36,41.36,0,0,1,13,26.65c1.05,0,2.1,0,3.27,0V16.27ZM22,89.82V74.51H32.55V89.82h2.32V74.48H45.38V89.82H60.94c0-.32,0-.59,0-.86q0-20.52,0-41,0-6.31,0-12.62a2.56,2.56,0,0,0-2.22-2.78c-2.54-.09-5.09,0-7.76,0v7.84H16.32V32.46H9.61c-2.27,0-3.24,1-3.24,3.23q0,26.55,0,53.09v1Zm9.24-63.71V20.8H27.41V35.38h3.89V29.67H36.1v5.71H40V20.8H36.06v5.31Z"/><path class="cls-1" d="M43.51,12.06c.21-1.25.33-2.3.57-3.32a1.64,1.64,0,0,0-.59-1.8c-.78-.7-1.48-1.5-2.29-2.35,1.21-.18,2.37-.31,3.51-.56a1.73,1.73,0,0,0,1-.72c.59-1,1.07-2.1,1.68-3.32.6,1.21,1.09,2.3,1.68,3.33a1.73,1.73,0,0,0,1,.72c1.14.24,2.3.37,3.49.55-.88.91-1.71,1.7-2.45,2.58a1.94,1.94,0,0,0-.42,1.29c.11,1.14.36,2.26.58,3.59-1.24-.65-2.28-1.24-3.37-1.74a1.46,1.46,0,0,0-1.09,0C45.81,10.81,44.78,11.39,43.51,12.06Z"/><path class="cls-1" d="M23.86,12.06c-1.18-.62-2.16-1.09-3.09-1.63a1.4,1.4,0,0,0-1.62,0c-1,.57-2,1-3.13,1.64.22-1.29.39-2.39.61-3.48a1.43,1.43,0,0,0-.47-1.48c-.81-.76-1.53-1.62-2.34-2.5,1.07-.16,2.18-.39,3.3-.49a1.34,1.34,0,0,0,1.25-.91c.45-1,1-2,1.57-3.2.58,1.17,1.11,2.19,1.59,3.24a1.29,1.29,0,0,0,1.18.86c1.14.11,2.26.32,3.48.51-.87.89-1.62,1.72-2.45,2.46a1.46,1.46,0,0,0-.49,1.56C23.48,9.69,23.64,10.76,23.86,12.06Z"/><path class="cls-1" d="M12.35,4.59c-.88.94-1.74,1.79-2.52,2.71a1.5,1.5,0,0,0-.31,1c.14,1.19.37,2.38.6,3.74-1.2-.63-2.24-1.23-3.34-1.72a1.58,1.58,0,0,0-1.17,0c-1.07.49-2.09,1.07-3.32,1.71.23-1.38.45-2.58.6-3.78a1.37,1.37,0,0,0-.3-1C1.79,6.42.93,5.57,0,4.6,1.2,4.42,2.36,4.29,3.49,4a1.73,1.73,0,0,0,1-.73c.59-1,1.07-2.08,1.67-3.3.61,1.2,1.16,2.23,1.64,3.29A1.21,1.21,0,0,0,9,4.09C10.09,4.21,11.21,4.42,12.35,4.59Z"/><path class="cls-1" d="M27.49,4.59C28.71,4.41,29.88,4.28,31,4a1.6,1.6,0,0,0,1-.68c.58-1,1.07-2.1,1.7-3.36.56,1.13,1.07,2.1,1.52,3.1a1.44,1.44,0,0,0,1.37,1c1.08.07,2.14.3,3.33.49-.89.92-1.67,1.77-2.51,2.57A1.21,1.21,0,0,0,37,8.47c.25,1.12.39,2.25.61,3.58-1.17-.6-2.22-1.1-3.22-1.68a1.21,1.21,0,0,0-1.36,0c-1,.58-2.07,1.09-3.24,1.7.22-1.34.37-2.5.62-3.65A1.14,1.14,0,0,0,30,7.19C29.17,6.39,28.4,5.54,27.49,4.59Z"/><path class="cls-1" d="M55,4.59c1.19-.18,2.32-.38,3.45-.5a1.22,1.22,0,0,0,1.11-.81c.47-1,1-2.05,1.62-3.28.57,1.16,1.09,2.16,1.56,3.18A1.35,1.35,0,0,0,64,4.1c1.11.09,2.2.31,3.37.49-.86.91-1.64,1.78-2.47,2.58a1.21,1.21,0,0,0-.4,1.3c.25,1.11.39,2.25.61,3.58-1.17-.61-2.22-1.11-3.23-1.69a1.21,1.21,0,0,0-1.36,0c-1,.57-2,1.07-3.22,1.69.21-1.3.34-2.45.6-3.56a1.28,1.28,0,0,0-.46-1.37C56.6,6.34,55.85,5.51,55,4.59Z"/><path class="cls-1" d="M13.41,54.34V44H23.85V54.34Z"/><path class="cls-1" d="M13.44,59.26H23.85V69.66H13.44Z"/><path class="cls-1" d="M28.49,43.93H38.87v10.4H28.49Z"/><path class="cls-1" d="M43.5,43.94h10.4v10.4H43.5Z"/><path class="cls-1" d="M38.89,59.29V69.66H28.49V59.29Z"/><path class="cls-1" d="M43.5,59.26H53.89v10.4H43.5Z"/></g></g></svg>