<svg xmlns="http://www.w3.org/2000/svg" viewBox="0 0 104.81 66.34"><defs><style>.cls-1{fill:#0078d7;}</style></defs><title>Asset 15</title><g id="Layer_2" data-name="Layer 2"><g id="Our_Serviices" data-name="Our Serviices"><path class="cls-1" d="M52.29,66.34h-45A7,7,0,0,1,0,59Q0,33.42,0,7.8C0,2.81,2.8,0,7.77,0h89.7a7,7,0,0,1,7.33,7.24q0,26,0,52a7,7,0,0,1-7.16,7.08H52.29ZM62.92,6.9V59.44H95.63c2,0,2.28-.26,2.28-2.25q0-24.08,0-48.17c0-1.83-.29-2.12-2.18-2.12H62.92Zm-29,22.87c.38-.22.66-.38.95-.53l14.73-7.61c1.23-.64,1.34-1,.64-2.22-.26-.44-.55-.86-.77-1.32A1.94,1.94,0,0,0,47.12,17L26.73,20.64a2.12,2.12,0,0,1-1.87-.52c-2.15-1.73-4.3-3.47-6.61-5a9.24,9.24,0,0,0-3.78-1.2A1.91,1.91,0,0,0,12.2,16.2,9.2,9.2,0,0,0,13.38,20c1.51,2.34,3.32,4.49,5,6.75a2,2,0,0,1,.47,1.32q-1.68,9.72-3.47,19.42c-.53,2.9-.56,2.9,1.93,4.41,1.42.86,1.74.77,2.51-.71l7.08-13.65c.3-.57.62-1.14,1-1.81,2,1.68,3.92,3.27,5.81,4.91a1.52,1.52,0,0,1,.31,1c.11,1.85.28,3.71.24,5.56A2.9,2.9,0,0,0,36,50c.83.46,1.33.32,1.7-.56.86-2,1.73-4.09,2.66-6.09a2.42,2.42,0,0,1,1.08-1.1c2-.95,4.14-1.79,6.18-2.73a1.56,1.56,0,0,0,.86-.94c.11-.94-1.38-2.36-2.37-2.4-2-.08-4.08-.13-6.11-.27a2.24,2.24,0,0,1-1.42-.59C37,33.55,35.55,31.7,33.94,29.77Z"/><path class="cls-1" d="M70,24.33V21.06H90.75v3.27Z"/><path class="cls-1" d="M70,31.32V28.05H90.75v3.27Z"/><path class="cls-1" d="M90.77,35v3.26H70V35Z"/><path class="cls-1" d="M70,45.31V42H80.26v3.27Z"/></g></g></svg>