<svg xmlns="http://www.w3.org/2000/svg" viewBox="0 0 90.76 96.13"><defs><style>.cls-1{fill:#0078d7;}</style></defs><title>Asset 5</title><g id="Layer_2" data-name="Layer 2"><g id="Our_Serviices" data-name="Our Serviices"><path class="cls-1" d="M.47,31.21Q22.28,46.15,44.07,61.13c1.2.83,1.89.39,2.8-.24q14.32-9.82,28.65-19.62c5-3.44,10-6.9,15.23-10.47-.38-.29-.56-.43-.75-.56Q68.28,15.37,46.58.46c-1.19-.82-1.88-.4-2.8.24q-17,11.65-34,23.27L0,30.72A4.39,4.39,0,0,0,.47,31.21Z"/><path class="cls-1" d="M43.19,77.7c1.7,1.18,2.75,1,4.36-.07C60.91,68.38,74.33,59.22,87.74,50c3-2.07,3-2.06.45-4.79A13,13,0,0,1,87,43.88c-1-1.41-1.92-1.42-3.39-.44C71.42,51.6,59.18,59.64,47,67.79a2.58,2.58,0,0,1-3.41,0Q27.25,56.89,10.8,46.13C9,44.92,7,42.51,5.24,42.91s-3.3,3-4.91,4.6A3.18,3.18,0,0,0,0,48c.8.56,1.6,1.14,2.42,1.69C16,59,29.66,68.31,43.19,77.7Z"/><path class="cls-1" d="M89.61,63.81A17.68,17.68,0,0,1,86.9,61c-1.06-1.4-2-1.32-3.37-.37-12,8-24,15.92-36,24-1.65,1.11-2.72,1.19-4.39.07C32.17,77.29,21.08,70,10,62.75c-4.91-3.24-4.87-3.19-9,1-1.06,1.1-.92,1.54.27,2.35Q22.7,80.69,44,95.32c.43.29.9.53,1.39.81l1.39-.93Q68,80.66,89.31,66.15C90.46,65.36,90.83,64.84,89.61,63.81Z"/></g></g></svg>