<svg xmlns="http://www.w3.org/2000/svg" viewBox="0 0 138 85.96"><defs><style>.cls-1{fill:#0078d7;}</style></defs><title>Asset 13</title><g id="Layer_2" data-name="Layer 2"><g id="Our_Serviices" data-name="Our Serviices"><path class="cls-1" d="M138,69.38c-.21.67-.4,1.36-.63,2a7.13,7.13,0,0,1-6.71,4.93c-6.22.41-12.44,1.08-18.67,1.22-10.32.24-20.65.17-31,.2a22.11,22.11,0,0,1-2.82-.36c0-2,.13-4,0-6A18.61,18.61,0,0,0,73.63,60.1c-4.93-5.49-12.49-5.39-17.3.21-3,3.45-4.12,7.59-4.48,12,0,.35-.06.7-.11,1.24L28.07,70.17c0-2.6.21-5.15,0-7.65a14.81,14.81,0,0,0-4.29-9.22,10.07,10.07,0,0,0-15,.45,17.17,17.17,0,0,0-4.12,11.4c0,.49,0,1,0,1.63-1.34-.2-2.58-.32-3.79-.59-.3-.07-.57-.57-.72-.93a2.51,2.51,0,0,1,0-.93c0-14.46,0-28.92,0-43.38a28.82,28.82,0,0,1,.82-6.1A3.61,3.61,0,0,1,4.23,12C23.83,9,43.41,5.89,63,2.9,68.73,2,74.49,1.43,80.23.71a11,11,0,0,1,1.28,0c.5,3.2,1,6.38,1.49,9.56Q85.1,23,87.23,35.75a44,44,0,0,0,1.28,6.58c1.69,5.1,5.1,8.41,10.68,8.88,5.41.46,10.82,1,16.24,1.14a50,50,0,0,0,19.26-2.76c.57,2.5,1.14,4.91,1.66,7.34.57,2.62,1.09,5.25,1.63,7.87ZM72.56,18.77l-19.44,2L27.68,23.3c-4.69.47-9.38.93-14.06,1.44-.36,0-1,.48-1,.75-.07,3.4,0,6.81,0,10.29H74.23ZM103,62c-1.52,0-3,0-4.56,0a2.95,2.95,0,1,0-.07,5.89q4.56.1,9.13,0A2.95,2.95,0,1,0,107.4,62C105.93,62,104.45,62,103,62Zm28.54,1.33a3,3,0,0,0-3.74-2.92c-1.71.51-3.39,1.12-5.06,1.77a3,3,0,0,0,2,5.56c1.66-.52,3.29-1.14,4.92-1.76A2.86,2.86,0,0,0,131.51,63.33Z"/><path class="cls-1" d="M133.32,43.7a33,33,0,0,1-10.48,2.48c-7.78.75-15.51,0-23.23-.89-3.4-.39-5.4-2.82-6.05-6.9Q90.64,20.19,87.72,2c-.09-.57-.13-1.15-.21-1.89.68,0,1.29-.12,1.9-.1a111.9,111.9,0,0,1,24,3.15,30.68,30.68,0,0,1,6.71,2.69,10.56,10.56,0,0,1,5.72,7.51c1.66,7.52,3.72,15,5.6,22.43C132.05,38.39,132.67,41,133.32,43.7Z"/><path class="cls-1" d="M72.71,74.65c-.6,2.19-1.06,4.42-1.85,6.54a9.34,9.34,0,0,1-2.19,3.17,4.89,4.89,0,0,1-7.3-.06,13,13,0,0,1-3.46-7.83,16.92,16.92,0,0,1,1.4-9.83,11.3,11.3,0,0,1,2.05-3,4.92,4.92,0,0,1,7.4,0,12.91,12.91,0,0,1,3.46,7.84c.14,1,.15,2.05.22,3.08Z"/><path class="cls-1" d="M22.4,65.88a13.18,13.18,0,0,1-2,7.15c-2.27,3.35-5.69,3.35-8,0-2.61-3.84-2.62-10.59,0-14.44,2.26-3.33,5.75-3.34,8,0A13.24,13.24,0,0,1,22.4,65.88Z"/></g></g></svg>